<?xml version="1.0" encoding="utf-8"?>
<!-- Generator: Adobe Illustrator 19.0.0, SVG Export Plug-In . SVG Version: 6.00 Build 0)  -->
<svg version="1.1" id="Layer_1" xmlns="http://www.w3.org/2000/svg" xmlns:xlink="http://www.w3.org/1999/xlink" x="0px" y="0px"
	 viewBox="-241 393.9 112 54" style="enable-background:new -241 393.9 112 54;" xml:space="preserve">
<style type="text/css">
	.st0{opacity:0.78;}
	.st1{opacity:0.8;}
</style>
<g id="Height_14.47_cm" class="st0">
	<g class="st1">
		<path d="M-211.5,427h-1.3v-4.7h-4.4v4.7h-1.3v-9.6h1.3v3.8h4.4v-3.8h1.3V427z"/>
		<path d="M-206.8,427.1c-1.1,0-2-0.3-2.7-1c-0.6-0.6-1-1.6-1-2.8c0-1.2,0.3-2.1,0.9-2.8c0.6-0.7,1.4-1,2.4-1c0.4,0,0.8,0.1,1.2,0.2
			s0.6,0.3,0.9,0.6c0.3,0.3,0.5,0.6,0.6,1s0.2,0.9,0.2,1.5v0.7h-5c0,0.8,0.2,1.5,0.6,1.9c0.4,0.4,1,0.7,1.7,0.7c0.3,0,0.5,0,0.8-0.1
			c0.3-0.1,0.5-0.1,0.7-0.2s0.4-0.2,0.6-0.3c0.1-0.1,0.3-0.2,0.4-0.3h0.1v1.3c-0.1,0.1-0.3,0.1-0.5,0.2c-0.2,0.1-0.4,0.1-0.6,0.2
			s-0.5,0.1-0.6,0.1C-206.3,427.1-206.5,427.1-206.8,427.1z M-205.4,422.6c0-0.3,0-0.6-0.1-0.8c-0.1-0.2-0.2-0.4-0.3-0.6
			c-0.1-0.2-0.3-0.3-0.5-0.4s-0.5-0.1-0.8-0.1c-0.3,0-0.6,0-0.8,0.1c-0.2,0.1-0.4,0.2-0.6,0.4s-0.3,0.4-0.4,0.6
			c-0.1,0.2-0.2,0.5-0.2,0.8H-205.4z"/>
		<path d="M-202,418.6h-1.4v-1.3h1.4V418.6z M-202.1,427h-1.2v-7.2h1.2V427z"/>
		<path d="M-200.4,428.1c0.1,0,0.2,0.1,0.4,0.1c0.2,0.1,0.3,0.1,0.5,0.2c0.2,0.1,0.4,0.1,0.6,0.1c0.2,0,0.4,0.1,0.6,0.1
			c0.4,0,0.7,0,1-0.1c0.3-0.1,0.5-0.2,0.6-0.4c0.1-0.2,0.2-0.4,0.3-0.6c0.1-0.2,0.1-0.5,0.1-0.8v-0.6c-0.3,0.3-0.6,0.5-1,0.6
			c-0.3,0.1-0.7,0.2-1.2,0.2c-0.8,0-1.5-0.3-2-0.9s-0.7-1.5-0.7-2.6c0-0.6,0.1-1.1,0.3-1.6s0.4-0.9,0.7-1.2c0.3-0.3,0.6-0.5,1-0.7
			c0.4-0.2,0.8-0.3,1.1-0.3c0.4,0,0.7,0,1,0.1c0.3,0.1,0.5,0.2,0.8,0.4l0.1-0.3h1.1v6.4c0,1.2-0.3,2.1-0.8,2.7
			c-0.5,0.6-1.3,0.9-2.4,0.9c-0.4,0-0.7,0-1.1-0.1c-0.4-0.1-0.7-0.1-1-0.2L-200.4,428.1L-200.4,428.1z M-196.3,425v-4
			c-0.3-0.1-0.6-0.3-0.8-0.3c-0.3-0.1-0.5-0.1-0.8-0.1c-0.6,0-1.1,0.2-1.5,0.7c-0.4,0.5-0.5,1.1-0.5,1.9s0.1,1.4,0.4,1.8
			c0.3,0.4,0.7,0.6,1.3,0.6c0.3,0,0.6-0.1,1-0.2C-196.9,425.4-196.6,425.2-196.3,425z"/>
		<path d="M-188,427h-1.2v-4.1c0-0.3,0-0.6,0-0.9c0-0.3-0.1-0.5-0.2-0.7c-0.1-0.2-0.2-0.3-0.4-0.4c-0.2-0.1-0.4-0.1-0.7-0.1
			c-0.3,0-0.6,0.1-0.9,0.2c-0.3,0.2-0.6,0.4-0.9,0.6v5.4h-1.2v-10.1h1.2v3.6c0.4-0.3,0.7-0.6,1.1-0.7c0.4-0.2,0.7-0.3,1.1-0.3
			c0.7,0,1.3,0.2,1.7,0.7s0.6,1.1,0.6,2v4.8H-188z"/>
		<path d="M-184.5,427.1c-0.7,0-1.2-0.2-1.5-0.6c-0.3-0.4-0.6-1-0.6-1.8v-4h-0.8v-1h0.8v-2.1h1.2v2.1h2.2v1h-2.2v3.4
			c0,0.4,0,0.6,0,0.8c0,0.2,0.1,0.4,0.1,0.6c0.1,0.2,0.2,0.3,0.4,0.3c0.2,0.1,0.4,0.1,0.7,0.1c0.2,0,0.4,0,0.6-0.1
			c0.2-0.1,0.3-0.1,0.4-0.1h0.1v1.2c-0.2,0.1-0.5,0.1-0.7,0.2C-184.1,427.1-184.3,427.1-184.5,427.1z"/>
		<path d="M-173.5,427h-4.7v-1h1.7v-6.4h-1.7v-0.9c0.7,0,1.1-0.1,1.5-0.3c0.3-0.2,0.5-0.5,0.5-1.1h1v8.6h1.7V427z"/>
		<path d="M-166.1,418.8l-4.2,8.2h-1.4l4.4-8.5h-5v-1.1h6.1L-166.1,418.8L-166.1,418.8z"/>
		<path d="M-162.6,418.3c-0.2,0-0.5,0-0.7,0.1c-0.2,0.1-0.5,0.1-0.7,0.2c-0.2,0.1-0.4,0.2-0.5,0.3c-0.2,0.1-0.3,0.2-0.4,0.3h-0.1
			v-1.4c0.3-0.2,0.7-0.3,1.1-0.4c0.5-0.1,0.9-0.2,1.4-0.2c0.4,0,0.8,0,1.1,0.1c0.3,0.1,0.6,0.2,0.9,0.4s0.5,0.5,0.6,0.7
			c0.1,0.3,0.2,0.6,0.2,1c0,0.5-0.2,1-0.5,1.4c-0.3,0.4-0.8,0.7-1.3,0.8v0.1c0.2,0,0.4,0.1,0.6,0.2c0.2,0.1,0.4,0.2,0.6,0.4
			c0.2,0.2,0.4,0.4,0.5,0.7c0.1,0.3,0.2,0.6,0.2,1.1c0,0.4-0.1,0.8-0.2,1.2c-0.1,0.4-0.4,0.7-0.6,1c-0.3,0.3-0.6,0.5-1,0.7
			c-0.4,0.2-0.8,0.2-1.3,0.2s-1-0.1-1.4-0.2c-0.5-0.1-0.9-0.3-1.2-0.4v-1.4h0.1c0.3,0.2,0.6,0.4,1.1,0.6c0.5,0.2,0.9,0.3,1.4,0.3
			c0.3,0,0.5,0,0.8-0.1c0.3-0.1,0.5-0.2,0.7-0.4c0.2-0.2,0.3-0.4,0.4-0.6c0.1-0.2,0.1-0.5,0.1-0.9c0-0.3-0.1-0.6-0.2-0.9
			c-0.1-0.2-0.2-0.4-0.4-0.5c-0.2-0.1-0.4-0.2-0.6-0.3c-0.2-0.1-0.5-0.1-0.8-0.1h-0.5v-1.1h0.4c0.6,0,1.1-0.1,1.4-0.4
			c0.4-0.3,0.5-0.7,0.5-1.2c0-0.2,0-0.4-0.1-0.6c-0.1-0.2-0.2-0.3-0.4-0.4s-0.3-0.2-0.5-0.2S-162.4,418.3-162.6,418.3z"/>
		<path d="M-151.5,427.1c-0.5,0-0.9-0.1-1.4-0.2c-0.5-0.1-0.8-0.4-1.1-0.7c-0.3-0.3-0.5-0.7-0.7-1.2s-0.2-1-0.2-1.7
			c0-0.6,0.1-1.2,0.3-1.6c0.2-0.5,0.4-0.8,0.7-1.2c0.3-0.3,0.6-0.6,1.1-0.7c0.4-0.2,0.9-0.3,1.4-0.3c0.4,0,0.8,0.1,1.1,0.2
			c0.3,0.1,0.7,0.2,1,0.4v1.4h-0.1c-0.1-0.1-0.2-0.2-0.3-0.3c-0.1-0.1-0.3-0.2-0.5-0.3c-0.2-0.1-0.4-0.2-0.6-0.2
			c-0.2,0-0.4-0.1-0.7-0.1c-0.6,0-1.1,0.2-1.5,0.7c-0.4,0.5-0.6,1.1-0.6,2c0,0.9,0.2,1.5,0.6,2c0.4,0.5,0.9,0.7,1.5,0.7
			c0.4,0,0.8-0.1,1.1-0.2c0.4-0.2,0.7-0.4,0.9-0.6h0.1v1.4c-0.1,0.1-0.3,0.1-0.5,0.2c-0.1,0-0.3,0.1-0.4,0.1
			c-0.2,0.1-0.4,0.1-0.6,0.1C-151,427.1-151.2,427.1-151.5,427.1z"/>
		<path d="M-140.4,427v-4.2c0-0.3,0-0.6,0-0.9c0-0.3-0.1-0.5-0.2-0.7c-0.1-0.2-0.2-0.3-0.4-0.4c-0.2-0.1-0.4-0.1-0.6-0.1
			c-0.2,0-0.5,0.1-0.8,0.2c-0.3,0.2-0.6,0.4-0.9,0.7c0,0.1,0,0.2,0,0.3c0,0.1,0,0.2,0,0.4v4.7h-1.2v-4.2c0-0.3,0-0.6,0-0.9
			c0-0.3-0.1-0.5-0.2-0.7c-0.1-0.2-0.2-0.3-0.4-0.4c-0.2-0.1-0.4-0.1-0.6-0.1c-0.3,0-0.5,0.1-0.8,0.2c-0.3,0.2-0.6,0.4-0.8,0.6v5.4
			h-1.2v-7.2h1.2v0.8c0.3-0.3,0.6-0.6,0.9-0.7c0.3-0.1,0.7-0.3,1-0.3c0.4,0,0.8,0.1,1.1,0.3c0.3,0.2,0.6,0.5,0.8,1
			c0.4-0.4,0.7-0.7,1.1-0.9c0.3-0.2,0.7-0.3,1.1-0.3c0.3,0,0.6,0,0.8,0.1c0.3,0.1,0.5,0.3,0.7,0.5s0.3,0.5,0.4,0.8
			c0.1,0.3,0.2,0.7,0.2,1.2v4.7L-140.4,427L-140.4,427z"/>
	</g>
</g>
<g id="Gender_Female" class="st0">
	<g class="st1">
		<path d="M-215,408c-0.7,0-1.3-0.1-1.9-0.3c-0.6-0.2-1-0.5-1.5-0.9c-0.4-0.4-0.7-1-0.9-1.6s-0.3-1.3-0.3-2.2c0-0.8,0.1-1.5,0.3-2.1
			c0.2-0.6,0.5-1.1,0.9-1.6c0.4-0.4,0.9-0.7,1.4-1c0.6-0.2,1.2-0.3,1.9-0.3c0.3,0,0.6,0,0.9,0.1s0.6,0.1,0.9,0.2
			c0.2,0.1,0.5,0.2,0.7,0.3c0.2,0.1,0.6,0.2,0.7,0.3v1.5h-0.1c-0.2-0.1-0.3-0.3-0.5-0.4c-0.2-0.1-0.4-0.3-0.7-0.4s-0.6-0.2-0.9-0.3
			c-0.3-0.1-0.7-0.1-1.1-0.1c-0.9,0-1.7,0.3-2.2,1c-0.6,0.7-0.8,1.6-0.8,2.8c0,0.6,0.1,1.2,0.2,1.7s0.4,0.9,0.7,1.2
			c0.3,0.3,0.6,0.6,1,0.8c0.4,0.2,0.8,0.3,1.3,0.3c0.4,0,0.7,0,1.1-0.1c0.4-0.1,0.7-0.1,0.9-0.2v-2.5h-2.2V403h3.5v4.2
			c-0.2,0.1-0.4,0.2-0.7,0.3c-0.3,0.1-0.5,0.2-0.8,0.3s-0.6,0.2-0.9,0.2C-214.3,408-214.7,408-215,408z"/>
		<path d="M-207.5,408c-1.1,0-2-0.3-2.7-1c-0.6-0.6-1-1.6-1-2.8s0.3-2.1,0.9-2.8c0.6-0.7,1.4-1,2.4-1c0.4,0,0.8,0.1,1.2,0.2
			c0.3,0.1,0.6,0.3,0.9,0.6s0.5,0.6,0.6,1c0.1,0.4,0.2,0.9,0.2,1.5v0.7h-5c0,0.8,0.2,1.5,0.6,1.9c0.4,0.4,1,0.7,1.7,0.7
			c0.3,0,0.5,0,0.8-0.1c0.3-0.1,0.5-0.1,0.7-0.2s0.4-0.2,0.6-0.3c0.2-0.1,0.3-0.2,0.4-0.3h0.1v1.3c-0.1,0.1-0.3,0.1-0.5,0.2
			c-0.2,0.1-0.4,0.1-0.6,0.2c-0.2,0.1-0.5,0.1-0.6,0.1C-207,408-207.2,408-207.5,408z M-206.1,403.4c0-0.3,0-0.6-0.1-0.8
			c-0.1-0.2-0.2-0.4-0.3-0.6c-0.1-0.2-0.3-0.3-0.5-0.4c-0.2-0.1-0.5-0.1-0.8-0.1c-0.3,0-0.6,0-0.8,0.1s-0.4,0.2-0.6,0.4
			c-0.2,0.2-0.3,0.4-0.4,0.6c-0.1,0.2-0.2,0.5-0.2,0.8H-206.1z"/>
		<path d="M-198.4,407.8h-1.2v-4.1c0-0.3,0-0.6,0-0.9c0-0.3-0.1-0.5-0.2-0.7c-0.1-0.2-0.2-0.3-0.4-0.4s-0.4-0.1-0.7-0.1
			c-0.3,0-0.6,0.1-0.9,0.2c-0.3,0.2-0.6,0.4-0.9,0.6v5.4h-1.3v-7.2h1.2v0.8c0.4-0.3,0.7-0.6,1.1-0.7c0.4-0.2,0.7-0.3,1.1-0.3
			c0.7,0,1.3,0.2,1.7,0.7c0.4,0.5,0.6,1.1,0.6,2L-198.4,407.8L-198.4,407.8z"/>
		<path d="M-191.5,407.8h-1.2v-0.7c-0.2,0.2-0.4,0.3-0.5,0.4c-0.1,0.1-0.3,0.2-0.5,0.3c-0.1,0.1-0.3,0.1-0.5,0.2
			c-0.2,0-0.4,0.1-0.6,0.1c-0.4,0-0.8-0.1-1.1-0.2c-0.3-0.1-0.6-0.4-0.8-0.7s-0.4-0.7-0.5-1.2s-0.2-1-0.2-1.6c0-0.6,0.1-1.2,0.2-1.6
			c0.2-0.5,0.4-0.9,0.7-1.2c0.3-0.3,0.6-0.6,1-0.7c0.4-0.1,0.8-0.3,1.2-0.3c0.4,0,0.7,0,0.9,0.1s0.4,0.1,0.7,0.2v-3.1h1.2V407.8z
			 M-192.7,406.1v-4.2c-0.3-0.1-0.6-0.2-0.8-0.3s-0.5-0.1-0.8-0.1c-0.6,0-1.1,0.2-1.5,0.7c-0.4,0.5-0.5,1.1-0.5,2
			c0,0.8,0.1,1.5,0.4,1.9c0.3,0.4,0.7,0.7,1.3,0.7c0.3,0,0.6-0.1,1-0.2C-193.2,406.5-192.9,406.3-192.7,406.1z"/>
		<path d="M-186.9,408c-1.1,0-2-0.3-2.7-1c-0.6-0.6-1-1.6-1-2.8s0.3-2.1,0.9-2.8c0.6-0.7,1.4-1,2.4-1c0.4,0,0.8,0.1,1.2,0.2
			c0.4,0.1,0.6,0.3,0.9,0.6s0.5,0.6,0.6,1c0.1,0.4,0.2,0.9,0.2,1.5v0.7h-5c0,0.8,0.2,1.5,0.6,1.9c0.4,0.4,1,0.7,1.7,0.7
			c0.3,0,0.5,0,0.8-0.1c0.3-0.1,0.5-0.1,0.7-0.2c0.2-0.1,0.4-0.2,0.6-0.3c0.2-0.1,0.3-0.2,0.4-0.3h0.1v1.3c-0.1,0.1-0.3,0.1-0.5,0.2
			s-0.4,0.1-0.6,0.2c-0.2,0.1-0.4,0.1-0.6,0.2C-186.4,408-186.6,408-186.9,408z M-185.5,403.4c0-0.3,0-0.6-0.1-0.8
			c-0.1-0.2-0.2-0.4-0.3-0.6c-0.1-0.2-0.3-0.3-0.5-0.4c-0.2-0.1-0.5-0.1-0.8-0.1s-0.6,0-0.8,0.1c-0.2,0.1-0.4,0.2-0.6,0.4
			c-0.2,0.2-0.3,0.4-0.4,0.6c-0.1,0.2-0.2,0.5-0.2,0.8H-185.5z"/>
		<path d="M-179.6,401.9L-179.6,401.9c-0.2,0-0.3,0-0.4,0s-0.2,0-0.4,0c-0.3,0-0.7,0.1-1,0.2c-0.3,0.1-0.6,0.4-0.9,0.6v5.1h-1.2
			v-7.2h1.2v1.1c0.5-0.4,0.9-0.7,1.3-0.8c0.3-0.2,0.6-0.2,1-0.2c0.1,0,0.2,0,0.3,0c0.1,0,0.1,0,0.2,0v1.2H-179.6z"/>
		<path d="M-169.3,399.4h-4.5v2.7h4.3v1.1h-4.3v4.6h-1.3v-9.6h5.7v1.2H-169.3z"/>
		<path d="M-165.8,408c-1.1,0-2-0.3-2.7-1c-0.6-0.6-1-1.6-1-2.8s0.3-2.1,0.9-2.8c0.6-0.7,1.4-1,2.4-1c0.4,0,0.8,0.1,1.2,0.2
			s0.6,0.3,0.9,0.6c0.3,0.3,0.5,0.6,0.6,1s0.2,0.9,0.2,1.5v0.7h-5c0,0.8,0.2,1.5,0.6,1.9c0.4,0.4,1,0.7,1.7,0.7c0.3,0,0.5,0,0.8-0.1
			c0.3-0.1,0.5-0.1,0.7-0.2c0.2-0.1,0.4-0.2,0.6-0.3c0.2-0.1,0.3-0.2,0.4-0.3h0.1v1.3c-0.1,0.1-0.3,0.1-0.5,0.2s-0.4,0.1-0.6,0.2
			c-0.2,0.1-0.5,0.1-0.6,0.1S-165.5,408-165.8,408z M-164.4,403.4c0-0.3,0-0.6-0.1-0.8c-0.1-0.2-0.2-0.4-0.3-0.6
			c-0.1-0.2-0.3-0.3-0.5-0.4s-0.5-0.1-0.8-0.1s-0.6,0-0.8,0.1s-0.4,0.2-0.6,0.4c-0.2,0.2-0.3,0.4-0.4,0.6s-0.2,0.5-0.2,0.8H-164.4z"
			/>
		<path d="M-154.1,407.8v-4.1c0-0.3,0-0.6,0-0.9c0-0.3-0.1-0.5-0.2-0.7c-0.1-0.2-0.2-0.3-0.4-0.4s-0.4-0.1-0.6-0.1
			c-0.3,0-0.5,0.1-0.8,0.2c-0.3,0.1-0.6,0.4-0.9,0.7c0,0.1,0,0.2,0,0.3s0,0.2,0,0.4v4.7h-1.2v-4.2c0-0.3,0-0.6,0-0.9
			c0-0.3-0.1-0.5-0.2-0.7c-0.1-0.2-0.2-0.3-0.4-0.4c-0.2-0.1-0.4-0.1-0.6-0.1c-0.3,0-0.5,0.1-0.8,0.2c-0.3,0.2-0.6,0.4-0.8,0.6v5.4
			h-1.2v-7.2h1.2v0.8c0.3-0.3,0.6-0.6,0.9-0.7c0.3-0.1,0.7-0.3,1-0.3c0.4,0,0.8,0.1,1.1,0.3c0.3,0.2,0.6,0.5,0.8,1
			c0.4-0.4,0.7-0.7,1.1-0.9c0.3-0.2,0.7-0.3,1.1-0.3c0.3,0,0.6,0,0.8,0.1s0.5,0.3,0.7,0.5c0.2,0.2,0.3,0.5,0.4,0.8
			c0.1,0.3,0.2,0.7,0.2,1.2v4.7H-154.1z"/>
		<path d="M-147.5,407.1c-0.1,0.1-0.2,0.2-0.4,0.3c-0.2,0.1-0.3,0.2-0.5,0.3c-0.2,0.1-0.4,0.2-0.6,0.2c-0.2,0.1-0.5,0.1-0.8,0.1
			s-0.6-0.1-0.8-0.2c-0.3-0.1-0.5-0.3-0.7-0.5c-0.2-0.2-0.3-0.4-0.5-0.7c-0.2-0.3-0.2-0.6-0.2-0.9c0-0.5,0.1-0.9,0.3-1.3
			c0.2-0.3,0.5-0.6,1-0.8c0.4-0.2,0.9-0.3,1.4-0.4s1.1-0.1,1.8-0.2v-0.1c0-0.3,0-0.5-0.1-0.7s-0.3-0.3-0.4-0.4
			c-0.2-0.1-0.3-0.2-0.6-0.2c-0.2,0-0.5,0-0.7,0c-0.3,0-0.6,0-1,0.1c-0.4,0-0.7,0.2-1.1,0.3h-0.1v-1.2c0.2-0.1,0.5-0.1,1-0.2
			c0.4-0.1,0.8-0.1,1.2-0.1c0.5,0,0.9,0,1.3,0.1c0.3,0.1,0.6,0.2,0.9,0.4c0.3,0.2,0.5,0.5,0.6,0.8c0.1,0.3,0.2,0.7,0.2,1.1v4.9h-1.2
			V407.1z M-147.5,406.1v-2c-0.3,0-0.7,0.1-1.1,0.1c-0.4,0-0.8,0.1-1.1,0.2c-0.3,0.1-0.6,0.3-0.8,0.5c-0.2,0.2-0.3,0.5-0.3,0.9
			s0.1,0.7,0.3,0.9c0.2,0.2,0.6,0.3,1,0.3s0.7-0.1,1-0.2C-148.1,406.5-147.8,406.3-147.5,406.1z"/>
		<path d="M-143.7,407.8h-1.2v-10h1.2V407.8z"/>
		<path d="M-139.2,408c-1.1,0-2-0.3-2.7-1c-0.6-0.6-1-1.6-1-2.8s0.3-2.1,0.9-2.8c0.6-0.7,1.4-1,2.4-1c0.4,0,0.8,0.1,1.2,0.2
			s0.6,0.3,0.9,0.6c0.3,0.3,0.5,0.6,0.6,1s0.2,0.9,0.2,1.5v0.7h-5c0,0.8,0.2,1.5,0.6,1.9c0.4,0.4,1,0.7,1.7,0.7c0.3,0,0.5,0,0.8-0.1
			c0.3-0.1,0.5-0.1,0.7-0.2c0.2-0.1,0.4-0.2,0.6-0.3c0.2-0.1,0.3-0.2,0.4-0.3h0.1v1.3c-0.1,0.1-0.3,0.1-0.5,0.2s-0.4,0.1-0.6,0.2
			c-0.2,0.1-0.5,0.1-0.6,0.1S-138.9,408-139.2,408z M-137.7,403.4c0-0.3,0-0.6-0.1-0.8c-0.1-0.2-0.2-0.4-0.3-0.6
			c-0.1-0.2-0.3-0.3-0.5-0.4c-0.2-0.1-0.5-0.1-0.8-0.1c-0.3,0-0.6,0-0.8,0.1c-0.2,0.1-0.4,0.2-0.6,0.4c-0.2,0.2-0.3,0.4-0.4,0.6
			c-0.1,0.2-0.2,0.5-0.2,0.8H-137.7z"/>
	</g>
</g>
<g id="Blood_Type_B_x2B_" class="st0">
	<g class="st1">
		<path d="M-212.5,443c0,0.5-0.1,0.9-0.3,1.3s-0.4,0.7-0.7,0.9c-0.4,0.3-0.7,0.5-1.2,0.6c-0.4,0.1-0.9,0.2-1.6,0.2h-2.7v-9.6h2.5
			c0.7,0,1.2,0,1.5,0.1c0.3,0,0.7,0.2,1,0.3c0.3,0.2,0.6,0.4,0.8,0.7c0.2,0.3,0.2,0.7,0.2,1.1c0,0.5-0.1,0.9-0.4,1.2
			c-0.2,0.4-0.6,0.6-1,0.8v0.1c0.6,0.2,1,0.4,1.3,0.8C-212.7,441.8-212.5,442.3-212.5,443z M-214.3,438.6c0-0.2,0-0.4-0.1-0.6
			c-0.1-0.2-0.2-0.3-0.4-0.4s-0.4-0.2-0.7-0.2s-0.6,0-1.1,0h-1.2v2.8h1.5c0.4,0,0.7,0,0.9-0.1c0.2-0.1,0.4-0.1,0.6-0.3
			c0.2-0.1,0.3-0.3,0.4-0.5C-214.3,439.2-214.3,438.9-214.3,438.6z M-213.8,443c0-0.4-0.1-0.7-0.2-0.9s-0.3-0.4-0.6-0.6
			c-0.2-0.1-0.4-0.2-0.7-0.2c-0.2,0-0.6,0-1,0h-1.5v3.5h1c0.6,0,1,0,1.3-0.1s0.6-0.2,0.9-0.3c0.2-0.2,0.4-0.4,0.5-0.6
			C-213.9,443.6-213.8,443.3-213.8,443z"/>
		<path d="M-210.4,445.9h-1.2v-10h1.2V445.9z"/>
		<path d="M-203,442.3c0,1.2-0.3,2.1-0.9,2.8c-0.6,0.7-1.4,1-2.3,1c-1,0-1.8-0.3-2.4-1c-0.6-0.7-0.9-1.6-0.9-2.8
			c0-1.2,0.3-2.1,0.9-2.8c0.6-0.7,1.4-1,2.3-1c1,0,1.7,0.3,2.3,1C-203.3,440.2-203,441.1-203,442.3z M-204.2,442.3
			c0-0.9-0.2-1.6-0.5-2.1s-0.8-0.7-1.5-0.7c-0.6,0-1.1,0.2-1.5,0.7c-0.3,0.5-0.5,1.1-0.5,2.1c0,0.9,0.2,1.6,0.5,2.1s0.8,0.7,1.5,0.7
			c0.6,0,1.1-0.2,1.4-0.7C-204.4,443.9-204.2,443.2-204.2,442.3z"/>
		<path d="M-196.1,442.3c0,1.2-0.3,2.1-0.9,2.8c-0.6,0.7-1.4,1-2.3,1c-1,0-1.8-0.3-2.4-1c-0.6-0.7-0.9-1.6-0.9-2.8
			c0-1.2,0.3-2.1,0.9-2.8c0.6-0.7,1.4-1,2.3-1c1,0,1.7,0.3,2.3,1C-196.5,440.2-196.1,441.1-196.1,442.3z M-197.4,442.3
			c0-0.9-0.2-1.6-0.5-2.1c-0.3-0.5-0.8-0.7-1.5-0.7c-0.6,0-1.1,0.2-1.5,0.7c-0.3,0.5-0.5,1.1-0.5,2.1c0,0.9,0.2,1.6,0.5,2.1
			c0.3,0.5,0.8,0.7,1.5,0.7c0.6,0,1.1-0.2,1.4-0.7C-197.6,443.9-197.4,443.2-197.4,442.3z"/>
		<path d="M-189.7,445.9h-1.2v-0.7c-0.2,0.2-0.4,0.3-0.5,0.4c-0.1,0.1-0.3,0.2-0.5,0.3c-0.2,0.1-0.4,0.1-0.5,0.2
			c-0.2,0-0.4,0.1-0.6,0.1c-0.4,0-0.8-0.1-1.1-0.2c-0.3-0.1-0.6-0.4-0.8-0.7c-0.2-0.3-0.4-0.7-0.5-1.2c-0.1-0.5-0.2-1-0.2-1.6
			c0-0.6,0.1-1.2,0.2-1.6c0.1-0.4,0.4-0.9,0.7-1.2s0.6-0.6,1-0.7c0.4-0.2,0.8-0.3,1.2-0.3c0.4,0,0.7,0,0.9,0.1
			c0.3,0.1,0.5,0.2,0.8,0.4v-3.3h1.2v10H-189.7z M-190.9,444.1v-4.2c-0.3-0.1-0.6-0.2-0.8-0.3s-0.5-0.1-0.8-0.1
			c-0.6,0-1.1,0.2-1.5,0.7s-0.5,1.1-0.5,2c0,0.8,0.1,1.5,0.4,1.9c0.3,0.4,0.7,0.7,1.3,0.7c0.3,0,0.6-0.1,1-0.2
			C-191.5,444.6-191.2,444.4-190.9,444.1z"/>
		<path d="M-182.1,445.9v-8.5h-3.2v-1.1h7.7v1.1h-3.2v8.5H-182.1z"/>
		<path d="M-172.7,438.7l-3.9,9.9h-1.3l1.3-3l-2.6-6.9h1.3l2,5.3l2-5.3C-173.9,438.7-172.7,438.7-172.7,438.7z"/>
		<path d="M-166,442.1c0,1.2-0.3,2.2-0.9,2.9c-0.6,0.7-1.3,1.1-2.2,1.1c-0.4,0-0.7,0-0.9-0.1c-0.3-0.1-0.6-0.2-0.8-0.4v3h-1.2v-9.9
			h1.2v0.8c0.3-0.3,0.6-0.5,1-0.7c0.4-0.2,0.8-0.3,1.2-0.3c0.8,0,1.5,0.3,1.9,1C-166.3,440.1-166,441-166,442.1z M-167.3,442.2
			c0-0.8-0.1-1.5-0.4-1.9c-0.3-0.5-0.7-0.7-1.3-0.7c-0.3,0-0.7,0.1-1,0.2c-0.3,0.1-0.6,0.3-0.9,0.6v4.1c0.3,0.2,0.6,0.3,0.8,0.3
			s0.5,0.1,0.8,0.1c0.6,0,1.1-0.2,1.5-0.7C-167.5,443.8-167.3,443.1-167.3,442.2z"/>
		<path d="M-162,446.1c-1.1,0-2-0.3-2.7-1c-0.6-0.6-1-1.6-1-2.8c0-1.2,0.3-2.1,0.9-2.8c0.6-0.7,1.4-1,2.4-1c0.4,0,0.8,0.1,1.2,0.2
			s0.6,0.3,0.9,0.6c0.3,0.3,0.5,0.6,0.6,1s0.2,0.9,0.2,1.5v0.7h-5c0,0.8,0.2,1.5,0.6,1.9c0.4,0.4,1,0.7,1.7,0.7c0.3,0,0.5,0,0.8-0.1
			c0.3-0.1,0.5-0.1,0.7-0.2c0.2-0.1,0.4-0.2,0.6-0.3c0.2-0.1,0.3-0.2,0.4-0.3h0.1v1.3c-0.1,0.1-0.3,0.1-0.5,0.2s-0.4,0.1-0.6,0.2
			c-0.2,0.1-0.5,0.1-0.6,0.1S-161.7,446.1-162,446.1z M-160.6,441.5c0-0.3,0-0.6-0.1-0.8s-0.2-0.4-0.3-0.6c-0.1-0.2-0.3-0.3-0.5-0.4
			s-0.5-0.1-0.8-0.1s-0.6,0-0.8,0.1s-0.4,0.2-0.6,0.4c-0.2,0.2-0.3,0.4-0.4,0.6s-0.2,0.5-0.2,0.8H-160.6z"/>
		<path d="M-148.1,443c0,0.5-0.1,0.9-0.3,1.3c-0.2,0.4-0.4,0.7-0.7,0.9c-0.4,0.3-0.7,0.5-1.2,0.6c-0.4,0.1-0.9,0.2-1.6,0.2h-2.8
			v-9.6h2.5c0.7,0,1.2,0,1.5,0.1c0.3,0.1,0.7,0.2,1,0.3c0.3,0.2,0.6,0.4,0.8,0.7c0.2,0.3,0.2,0.7,0.2,1.1c0,0.5-0.1,0.9-0.4,1.2
			c-0.2,0.4-0.6,0.6-1,0.8v0.1c0.6,0.2,1,0.4,1.3,0.8C-148.5,441.9-148.1,442.3-148.1,443z M-149.9,438.6c0-0.2,0-0.4-0.1-0.6
			c-0.1-0.2-0.2-0.3-0.4-0.4c-0.2-0.1-0.4-0.2-0.7-0.2c-0.3,0-0.6,0-1,0h-1.2v2.8h1.5c0.4,0,0.7,0,0.9-0.1c0.2,0,0.4-0.1,0.6-0.3
			c0.2-0.1,0.3-0.3,0.4-0.5C-149.9,439.2-149.9,438.9-149.9,438.6z M-149.4,443c0-0.4-0.1-0.7-0.2-0.9c-0.1-0.2-0.3-0.4-0.6-0.6
			c-0.2-0.1-0.4-0.2-0.7-0.2s-0.6,0-1,0h-1.5v3.5h1c0.6,0,1,0,1.3-0.1s0.6-0.2,0.9-0.3c0.2-0.2,0.4-0.4,0.5-0.6
			C-149.5,443.6-149.4,443.3-149.4,443z"/>
		<path d="M-139.5,442.2h-3.3v3.3h-1.1v-3.3h-3.3v-1h3.3v-3.3h1.1v3.3h3.3V442.2z"/>
	</g>
</g>
<g id="tint">
	<g>
		<path d="M-235.9,447.3c-0.7-0.4-1.3-1-1.7-1.7c-0.4-0.7-0.7-1.5-0.7-2.3c0-0.7,0.2-1.3,0.5-2c0.2-0.4,0.6-1,1.1-1.8
			c0.5-0.8,1-1.4,1.2-1.9c0.5-0.8,0.8-1.6,1-2.5c0.2-0.2,0.3-0.3,0.5-0.4s0.4-0.1,0.7,0c0.2,0.1,0.4,0.3,0.4,0.5
			c0.3,0.9,0.6,1.7,1,2.5c0.3,0.5,0.7,1.1,1.2,1.9c0.5,0.8,0.9,1.4,1.1,1.8c0.3,0.6,0.5,1.3,0.5,2c0,0.8-0.2,1.6-0.6,2.3
			c-0.4,0.7-1,1.3-1.7,1.7c-0.6,0.3-1.4,0.5-2.2,0.5C-234.4,447.9-235.2,447.7-235.9,447.3z M-234.9,443.3c-0.1,0-0.1,0-0.1,0.1
			c-0.1,0.2-0.2,0.5-0.4,0.8c-0.1,0.2-0.2,0.3-0.2,0.3c-0.1,0.1-0.1,0.3-0.1,0.4c0,0.2,0.1,0.4,0.2,0.6c0.2,0.2,0.4,0.3,0.6,0.3
			c0.2,0,0.4-0.1,0.6-0.3c0.2-0.1,0.3-0.3,0.3-0.5c0-0.1,0-0.3-0.1-0.4c0-0.1-0.1-0.2-0.2-0.3c-0.2-0.3-0.4-0.6-0.4-0.8
			C-234.8,443.4-234.8,443.3-234.9,443.3z"/>
	</g>
</g>
<g id="_xF161_">
	<g>
		<path d="M-236.4,415.9c0.1-0.1,0.2-0.1,0.3-0.1c0.1,0,0.2,0,0.3,0.1l2.1,2.1c0.1,0.1,0.2,0.3,0.1,0.4c-0.1,0.2-0.2,0.3-0.4,0.3
			h-1.3v8.3c0,0.1,0,0.2-0.1,0.3c-0.1,0.1-0.2,0.1-0.3,0.1h-0.8c-0.1,0-0.2,0-0.3-0.1c-0.1-0.1-0.2-0.2-0.2-0.3v-8.3h-1.2
			c-0.2,0-0.3-0.1-0.4-0.3c-0.1-0.2,0-0.3,0.1-0.4L-236.4,415.9z M-225.7,417.4c0.1,0,0.2,0,0.3-0.1c0.1-0.1,0.1-0.2,0.1-0.3v-0.8
			c0-0.1,0-0.2-0.1-0.3c-0.1-0.1-0.2-0.1-0.3-0.1h-6.7c-0.1,0-0.2,0-0.3,0.1c-0.1,0.1-0.1,0.2-0.1,0.3v0.8c0,0.1,0,0.2,0.1,0.3
			c0.1,0.1,0.2,0.1,0.3,0.1H-225.7z M-232.8,419.5c0-0.1,0-0.2,0.1-0.3c0.1-0.1,0.2-0.1,0.3-0.1h5c0.1,0,0.2,0,0.3,0.1
			c0.1,0.1,0.1,0.2,0.1,0.3v0.8c0,0.1,0,0.2-0.1,0.3c-0.1,0.1-0.2,0.1-0.3,0.1h-5c-0.1,0-0.2,0-0.3-0.1c-0.1-0.1-0.1-0.2-0.1-0.3
			V419.5z M-232.8,422.8c0-0.1,0-0.2,0.1-0.3c0.1-0.1,0.2-0.1,0.3-0.1h3.3c0.1,0,0.2,0,0.3,0.1c0.1,0.1,0.1,0.2,0.1,0.3v0.8
			c0,0.1,0,0.2-0.1,0.3c-0.1,0.1-0.2,0.1-0.3,0.1h-3.3c-0.1,0-0.2,0-0.3-0.1c-0.1-0.1-0.1-0.2-0.1-0.3V422.8z M-232.8,426.2
			c0-0.1,0-0.2,0.1-0.3c0.1-0.1,0.2-0.1,0.3-0.1h1.7c0.1,0,0.2,0,0.3,0.1c0.1,0.1,0.1,0.2,0.1,0.3v0.8c0,0.1,0,0.2-0.1,0.3
			c-0.1,0.1-0.2,0.1-0.3,0.1h-1.7c-0.1,0-0.2,0-0.3-0.1c-0.1-0.1-0.1-0.2-0.1-0.3V426.2z"/>
	</g>
</g>
<g id="Venus">
	<g>
		<path d="M-228.3,399c0,1.2-0.4,2.3-1.1,3.2c-0.7,0.9-1.6,1.4-2.8,1.7v1.8h1.3c0.1,0,0.2,0,0.3,0.1c0.1,0.1,0.1,0.2,0.1,0.3v1.4
			c0,0.1,0,0.2-0.1,0.3c-0.1,0.1-0.2,0.1-0.3,0.1h-1.3v1.3c0,0.1,0,0.2-0.1,0.3c-0.1,0.1-0.2,0.1-0.3,0.1h-1.4c-0.1,0-0.2,0-0.3-0.1
			c-0.1-0.1-0.1-0.2-0.1-0.3v-1.3h-1.3c-0.1,0-0.2,0-0.3-0.1s-0.1-0.2-0.1-0.3v-1.4c0-0.1,0-0.2,0.1-0.3s0.2-0.1,0.3-0.1h1.3v-1.8
			c-1.2-0.3-2.1-0.9-2.9-1.8s-1.1-2-1.1-3.2c0-0.9,0.2-1.8,0.7-2.5c0.5-0.7,1.1-1.4,1.8-1.8c0.7-0.4,1.7-0.7,2.6-0.7
			c0.9,0,1.8,0.2,2.5,0.7s1.4,1.1,1.8,1.8C-228.6,397.1-228.3,398-228.3,399z M-236.1,399c0,0.8,0.3,1.4,0.8,2
			c0.5,0.6,1.2,0.8,2,0.8s1.4-0.3,2-0.8c0.6-0.5,0.8-1.2,0.8-2c0-0.8-0.3-1.4-0.8-2c-0.5-0.6-1.2-0.8-2-0.8s-1.4,0.3-2,0.8
			C-235.9,397.5-236.1,398.2-236.1,399z"/>
	</g>
</g>
</svg>
