<?xml version="1.0" encoding="utf-8"?>
<!-- Generator: Adobe Illustrator 23.0.1, SVG Export Plug-In . SVG Version: 6.00 Build 0)  -->
<svg version="1.1" id="Layer_1" xmlns="http://www.w3.org/2000/svg" xmlns:xlink="http://www.w3.org/1999/xlink" x="0px" y="0px"
	 viewBox="0 0 112 32.8" style="enable-background:new 0 0 112 32.8;" xml:space="preserve">
<style type="text/css">
	.st0{opacity:0.78;}
	.st1{opacity:0.8;}
</style>
<g id="Height_14.47_cm" class="st0">
	<g class="st1">
		<path d="M29.5,11.2h-1.3V6.5h-4.4v4.7h-1.3V1.6h1.3v3.8h4.4V1.6h1.3V11.2z"/>
		<path d="M34.2,11.3c-1.1,0-2-0.3-2.7-1c-0.6-0.6-1-1.6-1-2.8c0-1.2,0.3-2.1,0.9-2.8c0.6-0.7,1.4-1,2.4-1c0.4,0,0.8,0.1,1.2,0.2
			s0.6,0.3,0.9,0.6c0.3,0.3,0.5,0.6,0.6,1s0.2,0.9,0.2,1.5v0.7h-5c0,0.8,0.2,1.5,0.6,1.9c0.4,0.4,1,0.7,1.7,0.7c0.3,0,0.5,0,0.8-0.1
			s0.5-0.1,0.7-0.2s0.4-0.2,0.6-0.3c0.1-0.1,0.3-0.2,0.4-0.3h0.1v1.3c-0.1,0.1-0.3,0.1-0.5,0.2s-0.4,0.1-0.6,0.2s-0.5,0.1-0.6,0.1
			C34.7,11.3,34.5,11.3,34.2,11.3z M35.6,6.8c0-0.3,0-0.6-0.1-0.8c-0.1-0.2-0.2-0.4-0.3-0.6S34.9,5.1,34.7,5s-0.5-0.1-0.8-0.1
			s-0.6,0-0.8,0.1s-0.4,0.2-0.6,0.4S32.2,5.8,32.1,6c-0.1,0.2-0.2,0.5-0.2,0.8H35.6z"/>
		<path d="M39,2.8h-1.4V1.5H39V2.8z M38.9,11.2h-1.2V4h1.2V11.2z"/>
		<path d="M40.6,12.3c0.1,0,0.2,0.1,0.4,0.1c0.2,0.1,0.3,0.1,0.5,0.2s0.4,0.1,0.6,0.1c0.2,0,0.4,0.1,0.6,0.1c0.4,0,0.7,0,1-0.1
			s0.5-0.2,0.6-0.4c0.1-0.2,0.2-0.4,0.3-0.6s0.1-0.5,0.1-0.8v-0.6c-0.3,0.3-0.6,0.5-1,0.6c-0.3,0.1-0.7,0.2-1.2,0.2
			c-0.8,0-1.5-0.3-2-0.9s-0.7-1.5-0.7-2.6c0-0.6,0.1-1.1,0.3-1.6s0.4-0.9,0.7-1.2c0.3-0.3,0.6-0.5,1-0.7s0.8-0.3,1.1-0.3
			c0.4,0,0.7,0,1,0.1s0.5,0.2,0.8,0.4L44.8,4h1.1v6.4c0,1.2-0.3,2.1-0.8,2.7S43.8,14,42.7,14c-0.4,0-0.7,0-1.1-0.1
			c-0.4-0.1-0.7-0.1-1-0.2L40.6,12.3L40.6,12.3z M44.7,9.2v-4c-0.3-0.1-0.6-0.3-0.8-0.3c-0.3-0.1-0.5-0.1-0.8-0.1
			c-0.6,0-1.1,0.2-1.5,0.7s-0.5,1.1-0.5,1.9s0.1,1.4,0.4,1.8c0.3,0.4,0.7,0.6,1.3,0.6c0.3,0,0.6-0.1,1-0.2
			C44.1,9.6,44.4,9.4,44.7,9.2z"/>
		<path d="M53,11.2h-1.2V7.1c0-0.3,0-0.6,0-0.9s-0.1-0.5-0.2-0.7c-0.1-0.2-0.2-0.3-0.4-0.4S50.8,5,50.5,5s-0.6,0.1-0.9,0.2
			c-0.3,0.2-0.6,0.4-0.9,0.6v5.4h-1.2V1.1h1.2v3.6c0.4-0.3,0.7-0.6,1.1-0.7c0.4-0.2,0.7-0.3,1.1-0.3c0.7,0,1.3,0.2,1.7,0.7
			s0.6,1.1,0.6,2v4.8H53z"/>
		<path d="M56.5,11.3c-0.7,0-1.2-0.2-1.5-0.6s-0.6-1-0.6-1.8v-4h-0.8v-1h0.8V1.8h1.2v2.1h2.2v1h-2.2v3.4c0,0.4,0,0.6,0,0.8
			c0,0.2,0.1,0.4,0.1,0.6c0.1,0.2,0.2,0.3,0.4,0.3c0.2,0.1,0.4,0.1,0.7,0.1c0.2,0,0.4,0,0.6-0.1c0.2-0.1,0.3-0.1,0.4-0.1h0.1v1.2
			c-0.2,0.1-0.5,0.1-0.7,0.2C56.9,11.3,56.7,11.3,56.5,11.3z"/>
		<path d="M67.5,11.2h-4.7v-1h1.7V3.8h-1.7V2.9c0.7,0,1.1-0.1,1.5-0.3c0.3-0.2,0.5-0.5,0.5-1.1h1v8.6h1.7V11.2z"/>
		<path d="M74.9,3l-4.2,8.2h-1.4l4.4-8.5h-5V1.6h6.1L74.9,3L74.9,3z"/>
		<path d="M78.4,2.5c-0.2,0-0.5,0-0.7,0.1S77.2,2.7,77,2.8S76.6,3,76.5,3.1c-0.2,0.1-0.3,0.2-0.4,0.3H76V2c0.3-0.2,0.7-0.3,1.1-0.4
			c0.5-0.1,0.9-0.2,1.4-0.2c0.4,0,0.8,0,1.1,0.1s0.6,0.2,0.9,0.4s0.5,0.5,0.6,0.7c0.1,0.3,0.2,0.6,0.2,1c0,0.5-0.2,1-0.5,1.4
			S80,5.7,79.5,5.8v0.1c0.2,0,0.4,0.1,0.6,0.2c0.2,0.1,0.4,0.2,0.6,0.4c0.2,0.2,0.4,0.4,0.5,0.7c0.1,0.3,0.2,0.6,0.2,1.1
			c0,0.4-0.1,0.8-0.2,1.2c-0.1,0.4-0.4,0.7-0.6,1c-0.3,0.3-0.6,0.5-1,0.7s-0.8,0.2-1.3,0.2s-1-0.1-1.4-0.2c-0.5-0.1-0.9-0.3-1.2-0.4
			V9.4h0.1c0.3,0.2,0.6,0.4,1.1,0.6s0.9,0.3,1.4,0.3c0.3,0,0.5,0,0.8-0.1s0.5-0.2,0.7-0.4c0.2-0.2,0.3-0.4,0.4-0.6
			c0.1-0.2,0.1-0.5,0.1-0.9c0-0.3-0.1-0.6-0.2-0.9C80,7.2,79.9,7,79.7,6.9s-0.4-0.2-0.6-0.3c-0.2-0.1-0.5-0.1-0.8-0.1h-0.5V5.4h0.4
			c0.6,0,1.1-0.1,1.4-0.4c0.4-0.3,0.5-0.7,0.5-1.2c0-0.2,0-0.4-0.1-0.6s-0.2-0.3-0.4-0.4s-0.3-0.2-0.5-0.2S78.6,2.5,78.4,2.5z"/>
		<path d="M89.5,11.3c-0.5,0-0.9-0.1-1.4-0.2s-0.8-0.4-1.1-0.7c-0.3-0.3-0.5-0.7-0.7-1.2s-0.2-1-0.2-1.7c0-0.6,0.1-1.2,0.3-1.6
			c0.2-0.5,0.4-0.8,0.7-1.2c0.3-0.3,0.6-0.6,1.1-0.7c0.4-0.2,0.9-0.3,1.4-0.3c0.4,0,0.8,0.1,1.1,0.2s0.7,0.2,1,0.4v1.4h-0.1
			c-0.1-0.1-0.2-0.2-0.3-0.3c-0.1-0.1-0.3-0.2-0.5-0.3c-0.2-0.1-0.4-0.2-0.6-0.2c-0.2,0-0.4-0.1-0.7-0.1c-0.6,0-1.1,0.2-1.5,0.7
			s-0.6,1.1-0.6,2s0.2,1.5,0.6,2c0.4,0.5,0.9,0.7,1.5,0.7c0.4,0,0.8-0.1,1.1-0.2c0.4-0.2,0.7-0.4,0.9-0.6h0.1v1.4
			c-0.1,0.1-0.3,0.1-0.5,0.2c-0.1,0-0.3,0.1-0.4,0.1c-0.2,0.1-0.4,0.1-0.6,0.1C90,11.3,89.8,11.3,89.5,11.3z"/>
		<path d="M100.6,11.2V7c0-0.3,0-0.6,0-0.9s-0.1-0.5-0.2-0.7c-0.1-0.2-0.2-0.3-0.4-0.4s-0.4-0.1-0.6-0.1c-0.2,0-0.5,0.1-0.8,0.2
			c-0.3,0.2-0.6,0.4-0.9,0.7c0,0.1,0,0.2,0,0.3c0,0.1,0,0.2,0,0.4v4.7h-1.2V7c0-0.3,0-0.6,0-0.9s-0.1-0.5-0.2-0.7
			c-0.1-0.2-0.2-0.3-0.4-0.4s-0.4-0.1-0.6-0.1c-0.3,0-0.5,0.1-0.8,0.2c-0.3,0.2-0.6,0.4-0.8,0.6v5.4h-1.2V3.9h1.2v0.8
			C94,4.4,94.3,4.1,94.6,4c0.3-0.1,0.7-0.3,1-0.3c0.4,0,0.8,0.1,1.1,0.3c0.3,0.2,0.6,0.5,0.8,1c0.4-0.4,0.7-0.7,1.1-0.9
			c0.3-0.2,0.7-0.3,1.1-0.3c0.3,0,0.6,0,0.8,0.1c0.3,0.1,0.5,0.3,0.7,0.5s0.3,0.5,0.4,0.8c0.1,0.3,0.2,0.7,0.2,1.2v4.7L100.6,11.2
			L100.6,11.2z"/>
	</g>
</g>
<g id="Blood_Type_B_x2B_" class="st0">
	<g class="st1">
		<path d="M28.5,27.2c0,0.5-0.1,0.9-0.3,1.3s-0.4,0.7-0.7,0.9c-0.4,0.3-0.7,0.5-1.2,0.6c-0.4,0.1-0.9,0.2-1.6,0.2H22v-9.6h2.5
			c0.7,0,1.2,0,1.5,0.1c0.3,0,0.7,0.2,1,0.3c0.3,0.2,0.6,0.4,0.8,0.7C28,22,28,22.4,28,22.8c0,0.5-0.1,0.9-0.4,1.2
			c-0.2,0.4-0.6,0.6-1,0.8v0.1c0.6,0.2,1,0.4,1.3,0.8C28.3,26,28.5,26.5,28.5,27.2z M26.7,22.8c0-0.2,0-0.4-0.1-0.6
			s-0.2-0.3-0.4-0.4s-0.4-0.2-0.7-0.2s-0.6,0-1.1,0h-1.2v2.8h1.5c0.4,0,0.7,0,0.9-0.1s0.4-0.1,0.6-0.3c0.2-0.1,0.3-0.3,0.4-0.5
			C26.7,23.4,26.7,23.1,26.7,22.8z M27.2,27.2c0-0.4-0.1-0.7-0.2-0.9s-0.3-0.4-0.6-0.6c-0.2-0.1-0.4-0.2-0.7-0.2c-0.2,0-0.6,0-1,0
			h-1.5V29h1c0.6,0,1,0,1.3-0.1s0.6-0.2,0.9-0.3c0.2-0.2,0.4-0.4,0.5-0.6C27.1,27.8,27.2,27.5,27.2,27.2z"/>
		<path d="M30.6,30.1h-1.2v-10h1.2V30.1z"/>
		<path d="M38,26.5c0,1.2-0.3,2.1-0.9,2.8c-0.6,0.7-1.4,1-2.3,1c-1,0-1.8-0.3-2.4-1c-0.6-0.7-0.9-1.6-0.9-2.8c0-1.2,0.3-2.1,0.9-2.8
			c0.6-0.7,1.4-1,2.3-1c1,0,1.7,0.3,2.3,1C37.7,24.4,38,25.3,38,26.5z M36.8,26.5c0-0.9-0.2-1.6-0.5-2.1s-0.8-0.7-1.5-0.7
			c-0.6,0-1.1,0.2-1.5,0.7c-0.3,0.5-0.5,1.1-0.5,2.1c0,0.9,0.2,1.6,0.5,2.1s0.8,0.7,1.5,0.7c0.6,0,1.1-0.2,1.4-0.7
			C36.6,28.1,36.8,27.4,36.8,26.5z"/>
		<path d="M44.9,26.5c0,1.2-0.3,2.1-0.9,2.8c-0.6,0.7-1.4,1-2.3,1c-1,0-1.8-0.3-2.4-1c-0.6-0.7-0.9-1.6-0.9-2.8
			c0-1.2,0.3-2.1,0.9-2.8c0.6-0.7,1.4-1,2.3-1c1,0,1.7,0.3,2.3,1C44.5,24.4,44.9,25.3,44.9,26.5z M43.6,26.5c0-0.9-0.2-1.6-0.5-2.1
			s-0.8-0.7-1.5-0.7c-0.6,0-1.1,0.2-1.5,0.7c-0.3,0.5-0.5,1.1-0.5,2.1c0,0.9,0.2,1.6,0.5,2.1s0.8,0.7,1.5,0.7c0.6,0,1.1-0.2,1.4-0.7
			C43.4,28.1,43.6,27.4,43.6,26.5z"/>
		<path d="M51.3,30.1h-1.2v-0.7c-0.2,0.2-0.4,0.3-0.5,0.4s-0.3,0.2-0.5,0.3c-0.2,0.1-0.4,0.1-0.5,0.2c-0.2,0-0.4,0.1-0.6,0.1
			c-0.4,0-0.8-0.1-1.1-0.2s-0.6-0.4-0.8-0.7c-0.2-0.3-0.4-0.7-0.5-1.2s-0.2-1-0.2-1.6s0.1-1.2,0.2-1.6c0.1-0.4,0.4-0.9,0.7-1.2
			s0.6-0.6,1-0.7c0.4-0.2,0.8-0.3,1.2-0.3s0.7,0,0.9,0.1c0.3,0.1,0.5,0.2,0.8,0.4v-3.3h1.2L51.3,30.1L51.3,30.1L51.3,30.1z
			 M50.1,28.3v-4.2c-0.3-0.1-0.6-0.2-0.8-0.3s-0.5-0.1-0.8-0.1c-0.6,0-1.1,0.2-1.5,0.7s-0.5,1.1-0.5,2c0,0.8,0.1,1.5,0.4,1.9
			c0.3,0.4,0.7,0.7,1.3,0.7c0.3,0,0.6-0.1,1-0.2C49.5,28.8,49.8,28.6,50.1,28.3z"/>
		<path d="M58.9,30.1v-8.5h-3.2v-1.1h7.7v1.1h-3.2v8.5H58.9z"/>
		<path d="M68.3,22.9l-3.9,9.9h-1.3l1.3-3l-2.6-6.9h1.3l2,5.3l2-5.3H68.3z"/>
		<path d="M75,26.3c0,1.2-0.3,2.2-0.9,2.9c-0.6,0.7-1.3,1.1-2.2,1.1c-0.4,0-0.7,0-0.9-0.1c-0.3-0.1-0.6-0.2-0.8-0.4v3H69v-9.9h1.2
			v0.8c0.3-0.3,0.6-0.5,1-0.7s0.8-0.3,1.2-0.3c0.8,0,1.5,0.3,1.9,1C74.7,24.3,75,25.2,75,26.3z M73.7,26.4c0-0.8-0.1-1.5-0.4-1.9
			C73,24,72.6,23.8,72,23.8c-0.3,0-0.7,0.1-1,0.2s-0.6,0.3-0.9,0.6v4.1c0.3,0.2,0.6,0.3,0.8,0.3s0.5,0.1,0.8,0.1
			c0.6,0,1.1-0.2,1.5-0.7C73.5,28,73.7,27.3,73.7,26.4z"/>
		<path d="M79,30.3c-1.1,0-2-0.3-2.7-1c-0.6-0.6-1-1.6-1-2.8c0-1.2,0.3-2.1,0.9-2.8c0.6-0.7,1.4-1,2.4-1c0.4,0,0.8,0.1,1.2,0.2
			s0.6,0.3,0.9,0.6c0.3,0.3,0.5,0.6,0.6,1s0.2,0.9,0.2,1.5v0.7h-5c0,0.8,0.2,1.5,0.6,1.9c0.4,0.4,1,0.7,1.7,0.7c0.3,0,0.5,0,0.8-0.1
			s0.5-0.1,0.7-0.2s0.4-0.2,0.6-0.3c0.2-0.1,0.3-0.2,0.4-0.3h0.1v1.3c-0.1,0.1-0.3,0.1-0.5,0.2s-0.4,0.1-0.6,0.2
			c-0.2,0.1-0.5,0.1-0.6,0.1S79.3,30.3,79,30.3z M80.4,25.7c0-0.3,0-0.6-0.1-0.8s-0.2-0.4-0.3-0.6s-0.3-0.3-0.5-0.4
			s-0.5-0.1-0.8-0.1s-0.6,0-0.8,0.1s-0.4,0.2-0.6,0.4c-0.2,0.2-0.3,0.4-0.4,0.6s-0.2,0.5-0.2,0.8H80.4z"/>
		<path d="M92.9,27.2c0,0.5-0.1,0.9-0.3,1.3s-0.4,0.7-0.7,0.9c-0.4,0.3-0.7,0.5-1.2,0.6c-0.4,0.1-0.9,0.2-1.6,0.2h-2.8v-9.6h2.5
			c0.7,0,1.2,0,1.5,0.1s0.7,0.2,1,0.3c0.3,0.2,0.6,0.4,0.8,0.7c0.2,0.3,0.2,0.7,0.2,1.1c0,0.5-0.1,0.9-0.4,1.2
			c-0.2,0.4-0.6,0.6-1,0.8v0.1c0.6,0.2,1,0.4,1.3,0.8S92.9,26.5,92.9,27.2z M91.1,22.8c0-0.2,0-0.4-0.1-0.6s-0.2-0.3-0.4-0.4
			s-0.4-0.2-0.7-0.2s-0.6,0-1,0h-1.2v2.8h1.5c0.4,0,0.7,0,0.9-0.1c0.2,0,0.4-0.1,0.6-0.3c0.2-0.1,0.3-0.3,0.4-0.5
			C91.1,23.4,91.1,23.1,91.1,22.8z M91.6,27.2c0-0.4-0.1-0.7-0.2-0.9c-0.1-0.2-0.3-0.4-0.6-0.6c-0.2-0.1-0.4-0.2-0.7-0.2s-0.6,0-1,0
			h-1.5V29h1c0.6,0,1,0,1.3-0.1s0.6-0.2,0.9-0.3c0.2-0.2,0.4-0.4,0.5-0.6C91.5,27.8,91.6,27.5,91.6,27.2z"/>
		<path d="M101.5,26.4h-3.3v3.3h-1.1v-3.3h-3.3v-1h3.3v-3.3h1.1v3.3h3.3V26.4z"/>
	</g>
</g>
<g id="tint">
	<g>
		<path d="M6.1,31.5c-0.7-0.4-1.3-1-1.7-1.7s-0.7-1.5-0.7-2.3c0-0.7,0.2-1.3,0.5-2c0.2-0.4,0.6-1,1.1-1.8s1-1.4,1.2-1.9
			c0.5-0.8,0.8-1.6,1-2.5C7.7,19.1,7.8,19,8,18.9s0.4-0.1,0.7,0c0.2,0.1,0.4,0.3,0.4,0.5c0.3,0.9,0.6,1.7,1,2.5
			c0.3,0.5,0.7,1.1,1.2,1.9s0.9,1.4,1.1,1.8c0.3,0.6,0.5,1.3,0.5,2c0,0.8-0.2,1.6-0.6,2.3c-0.4,0.7-1,1.3-1.7,1.7
			c-0.6,0.3-1.4,0.5-2.2,0.5S6.8,31.9,6.1,31.5z M7.1,27.5c-0.1,0-0.1,0-0.1,0.1c-0.1,0.2-0.2,0.5-0.4,0.8c-0.1,0.2-0.2,0.3-0.2,0.3
			c-0.1,0.1-0.1,0.3-0.1,0.4c0,0.2,0.1,0.4,0.2,0.6C6.7,29.9,6.9,30,7.1,30c0.2,0,0.4-0.1,0.6-0.3C7.9,29.6,8,29.4,8,29.2
			c0-0.1,0-0.3-0.1-0.4c0-0.1-0.1-0.2-0.2-0.3c-0.2-0.3-0.4-0.6-0.4-0.8C7.2,27.6,7.2,27.5,7.1,27.5z"/>
	</g>
</g>
<g id="_xF161_">
	<g>
		<path d="M4.6,0.1C4.7,0,4.8,0,4.9,0s0.2,0,0.3,0.1l2.1,2.1c0.1,0.1,0.2,0.3,0.1,0.4C7.3,2.8,7.2,2.9,7,2.9H5.7v8.3
			c0,0.1,0,0.2-0.1,0.3c-0.1,0.1-0.2,0.1-0.3,0.1H4.5c-0.1,0-0.2,0-0.3-0.1S4,11.3,4,11.2V2.9H2.8c-0.2,0-0.3-0.1-0.4-0.3
			c-0.1-0.2,0-0.3,0.1-0.4L4.6,0.1z M15.3,1.6c0.1,0,0.2,0,0.3-0.1s0.1-0.2,0.1-0.3V0.4c0-0.1,0-0.2-0.1-0.3C15.5,0,15.4,0,15.3,0
			H8.6C8.5,0,8.4,0,8.3,0.1S8.2,0.3,8.2,0.4v0.8c0,0.1,0,0.2,0.1,0.3c0.1,0.1,0.2,0.1,0.3,0.1H15.3z M8.2,3.7c0-0.1,0-0.2,0.1-0.3
			c0.1-0.1,0.2-0.1,0.3-0.1h5c0.1,0,0.2,0,0.3,0.1S14,3.6,14,3.7v0.8c0,0.1,0,0.2-0.1,0.3c-0.1,0.1-0.2,0.1-0.3,0.1h-5
			c-0.1,0-0.2,0-0.3-0.1S8.2,4.6,8.2,4.5V3.7z M8.2,7c0-0.1,0-0.2,0.1-0.3c0.1-0.1,0.2-0.1,0.3-0.1h3.3c0.1,0,0.2,0,0.3,0.1
			s0.1,0.2,0.1,0.3v0.8c0,0.1,0,0.2-0.1,0.3c-0.1,0.1-0.2,0.1-0.3,0.1H8.6c-0.1,0-0.2,0-0.3-0.1S8.2,7.9,8.2,7.8V7z M8.2,10.4
			c0-0.1,0-0.2,0.1-0.3C8.4,10,8.5,10,8.6,10h1.7c0.1,0,0.2,0,0.3,0.1s0.1,0.2,0.1,0.3v0.8c0,0.1,0,0.2-0.1,0.3
			c-0.1,0.1-0.2,0.1-0.3,0.1H8.6c-0.1,0-0.2,0-0.3-0.1s-0.1-0.2-0.1-0.3V10.4z"/>
	</g>
</g>
</svg>
